<mxfile host="app.diagrams.net" modified="2021-05-31T04:21:16.671Z" agent="5.0 (Macintosh; Intel Mac OS X 10_15_7) AppleWebKit/537.36 (KHTML, like Gecko) Chrome/89.0.4389.90 Safari/537.36" etag="AOC28h9HRrqF_wGLJXrE" version="14.7.3" type="github">
  <diagram id="C5RBs43oDa-KdzZeNtuy" name="Page-1">
    <mxGraphModel dx="828" dy="832" grid="1" gridSize="10" guides="1" tooltips="1" connect="1" arrows="1" fold="1" page="1" pageScale="1" pageWidth="827" pageHeight="1169" math="0" shadow="0">
      <root>
        <mxCell id="WIyWlLk6GJQsqaUBKTNV-0" />
        <mxCell id="WIyWlLk6GJQsqaUBKTNV-1" parent="WIyWlLk6GJQsqaUBKTNV-0" />
        <mxCell id="XrSL-Z-DYYKuxW4y9-j6-3" value="awesome" style="swimlane;fontStyle=2;align=center;verticalAlign=top;childLayout=stackLayout;horizontal=1;startSize=26;horizontalStack=0;resizeParent=1;resizeLast=0;collapsible=1;marginBottom=0;rounded=0;shadow=0;strokeWidth=1;" vertex="1" parent="WIyWlLk6GJQsqaUBKTNV-1">
          <mxGeometry x="180" y="70" width="160" height="190" as="geometry">
            <mxRectangle x="230" y="140" width="160" height="26" as="alternateBounds" />
          </mxGeometry>
        </mxCell>
        <mxCell id="XrSL-Z-DYYKuxW4y9-j6-4" value="load" style="text;align=left;verticalAlign=top;spacingLeft=4;spacingRight=4;overflow=hidden;rotatable=0;points=[[0,0.5],[1,0.5]];portConstraint=eastwest;" vertex="1" parent="XrSL-Z-DYYKuxW4y9-j6-3">
          <mxGeometry y="26" width="160" height="26" as="geometry" />
        </mxCell>
        <mxCell id="XrSL-Z-DYYKuxW4y9-j6-5" value="dump" style="text;align=left;verticalAlign=top;spacingLeft=4;spacingRight=4;overflow=hidden;rotatable=0;points=[[0,0.5],[1,0.5]];portConstraint=eastwest;rounded=0;shadow=0;html=0;" vertex="1" parent="XrSL-Z-DYYKuxW4y9-j6-3">
          <mxGeometry y="52" width="160" height="26" as="geometry" />
        </mxCell>
        <mxCell id="XrSL-Z-DYYKuxW4y9-j6-6" value="get_random_movie" style="text;align=left;verticalAlign=top;spacingLeft=4;spacingRight=4;overflow=hidden;rotatable=0;points=[[0,0.5],[1,0.5]];portConstraint=eastwest;rounded=0;shadow=0;html=0;" vertex="1" parent="XrSL-Z-DYYKuxW4y9-j6-3">
          <mxGeometry y="78" width="160" height="26" as="geometry" />
        </mxCell>
        <mxCell id="XrSL-Z-DYYKuxW4y9-j6-7" value="load_default_settings" style="text;align=left;verticalAlign=top;spacingLeft=4;spacingRight=4;overflow=hidden;rotatable=0;points=[[0,0.5],[1,0.5]];portConstraint=eastwest;rounded=0;shadow=0;html=0;" vertex="1" parent="XrSL-Z-DYYKuxW4y9-j6-3">
          <mxGeometry y="104" width="160" height="26" as="geometry" />
        </mxCell>
        <mxCell id="XrSL-Z-DYYKuxW4y9-j6-8" value="get_strength" style="text;align=left;verticalAlign=top;spacingLeft=4;spacingRight=4;overflow=hidden;rotatable=0;points=[[0,0.5],[1,0.5]];portConstraint=eastwest;rounded=0;shadow=0;html=0;" vertex="1" parent="XrSL-Z-DYYKuxW4y9-j6-3">
          <mxGeometry y="130" width="160" height="26" as="geometry" />
        </mxCell>
        <mxCell id="XrSL-Z-DYYKuxW4y9-j6-9" value="get_movie" style="text;align=left;verticalAlign=top;spacingLeft=4;spacingRight=4;overflow=hidden;rotatable=0;points=[[0,0.5],[1,0.5]];portConstraint=eastwest;rounded=0;shadow=0;html=0;" vertex="1" parent="XrSL-Z-DYYKuxW4y9-j6-3">
          <mxGeometry y="156" width="160" height="26" as="geometry" />
        </mxCell>
        <mxCell id="XrSL-Z-DYYKuxW4y9-j6-31" value="&lt;b&gt;/(title)&lt;br&gt;&lt;/b&gt;A --&amp;gt; /worldmap&lt;br&gt;B--&amp;gt;/options/load_game" style="rounded=0;whiteSpace=wrap;html=1;" vertex="1" parent="WIyWlLk6GJQsqaUBKTNV-1">
          <mxGeometry x="30" y="320" width="200" height="60" as="geometry" />
        </mxCell>
        <mxCell id="XrSL-Z-DYYKuxW4y9-j6-32" value="&lt;b&gt;/worldmap&lt;br&gt;&lt;/b&gt;A--&amp;gt;/battle/moviemon_id&lt;br&gt;start--&amp;gt;/options&lt;br&gt;select--&amp;gt;/moviedex" style="rounded=0;whiteSpace=wrap;html=1;" vertex="1" parent="WIyWlLk6GJQsqaUBKTNV-1">
          <mxGeometry x="30" y="420" width="200" height="60" as="geometry" />
        </mxCell>
        <mxCell id="XrSL-Z-DYYKuxW4y9-j6-34" value="&lt;b&gt;/moviedex&lt;/b&gt;&lt;br&gt;select--&amp;gt;worldmap&lt;br&gt;A--&amp;gt;/detail" style="rounded=0;whiteSpace=wrap;html=1;" vertex="1" parent="WIyWlLk6GJQsqaUBKTNV-1">
          <mxGeometry x="320" y="550" width="200" height="50" as="geometry" />
        </mxCell>
        <mxCell id="XrSL-Z-DYYKuxW4y9-j6-35" value="&lt;b&gt;/detail&lt;/b&gt;&lt;br&gt;B--&amp;gt;/moviedex" style="rounded=0;whiteSpace=wrap;html=1;" vertex="1" parent="WIyWlLk6GJQsqaUBKTNV-1">
          <mxGeometry x="320" y="750" width="200" height="40" as="geometry" />
        </mxCell>
        <mxCell id="XrSL-Z-DYYKuxW4y9-j6-36" value="&lt;b&gt;/options&lt;/b&gt;&lt;br&gt;start--&amp;gt;/worldmap&lt;br&gt;A--&amp;gt;/options/save_game&lt;br&gt;B--&amp;gt;/" style="rounded=0;whiteSpace=wrap;html=1;" vertex="1" parent="WIyWlLk6GJQsqaUBKTNV-1">
          <mxGeometry x="320" y="425" width="200" height="65" as="geometry" />
        </mxCell>
        <mxCell id="XrSL-Z-DYYKuxW4y9-j6-37" value="&lt;b&gt;/battle/moviemon_id&lt;br&gt;&lt;/b&gt;B--&amp;gt;/worldmap" style="rounded=0;whiteSpace=wrap;html=1;" vertex="1" parent="WIyWlLk6GJQsqaUBKTNV-1">
          <mxGeometry x="30" y="535" width="200" height="50" as="geometry" />
        </mxCell>
        <mxCell id="XrSL-Z-DYYKuxW4y9-j6-52" value="" style="edgeStyle=orthogonalEdgeStyle;rounded=0;orthogonalLoop=1;jettySize=auto;html=1;" edge="1" parent="WIyWlLk6GJQsqaUBKTNV-1" source="XrSL-Z-DYYKuxW4y9-j6-38" target="XrSL-Z-DYYKuxW4y9-j6-36">
          <mxGeometry relative="1" as="geometry" />
        </mxCell>
        <mxCell id="XrSL-Z-DYYKuxW4y9-j6-38" value="&lt;b&gt;/options/load_game&lt;/b&gt;&lt;br&gt;A--&amp;gt;/worldmap&lt;br&gt;B--&amp;gt;/" style="rounded=0;whiteSpace=wrap;html=1;" vertex="1" parent="WIyWlLk6GJQsqaUBKTNV-1">
          <mxGeometry x="330" y="330" width="180" height="70" as="geometry" />
        </mxCell>
        <mxCell id="XrSL-Z-DYYKuxW4y9-j6-39" value="&lt;b&gt;/options/save_game&lt;/b&gt;&lt;br&gt;B--&amp;gt; /options" style="rounded=0;whiteSpace=wrap;html=1;" vertex="1" parent="WIyWlLk6GJQsqaUBKTNV-1">
          <mxGeometry x="600" y="420" width="180" height="50" as="geometry" />
        </mxCell>
        <mxCell id="XrSL-Z-DYYKuxW4y9-j6-40" value="" style="endArrow=classic;startArrow=classic;html=1;" edge="1" parent="WIyWlLk6GJQsqaUBKTNV-1">
          <mxGeometry width="50" height="50" relative="1" as="geometry">
            <mxPoint x="130" y="532" as="sourcePoint" />
            <mxPoint x="130" y="480" as="targetPoint" />
            <Array as="points" />
          </mxGeometry>
        </mxCell>
        <mxCell id="XrSL-Z-DYYKuxW4y9-j6-41" value="" style="endArrow=classic;startArrow=classic;html=1;" edge="1" parent="WIyWlLk6GJQsqaUBKTNV-1">
          <mxGeometry width="50" height="50" relative="1" as="geometry">
            <mxPoint x="316" y="450" as="sourcePoint" />
            <mxPoint x="230" y="450" as="targetPoint" />
            <Array as="points">
              <mxPoint x="270" y="450" />
            </Array>
          </mxGeometry>
        </mxCell>
        <mxCell id="XrSL-Z-DYYKuxW4y9-j6-42" value="" style="endArrow=classic;startArrow=classic;html=1;exitX=0;exitY=0.5;exitDx=0;exitDy=0;" edge="1" parent="WIyWlLk6GJQsqaUBKTNV-1" source="XrSL-Z-DYYKuxW4y9-j6-34">
          <mxGeometry width="50" height="50" relative="1" as="geometry">
            <mxPoint x="310" y="456.2499999999998" as="sourcePoint" />
            <mxPoint x="230" y="449.9999999999998" as="targetPoint" />
            <Array as="points" />
          </mxGeometry>
        </mxCell>
        <mxCell id="XrSL-Z-DYYKuxW4y9-j6-43" value="" style="endArrow=classic;startArrow=classic;html=1;exitX=0.5;exitY=0;exitDx=0;exitDy=0;" edge="1" parent="WIyWlLk6GJQsqaUBKTNV-1" source="XrSL-Z-DYYKuxW4y9-j6-35">
          <mxGeometry width="50" height="50" relative="1" as="geometry">
            <mxPoint x="510" y="594.9999999999998" as="sourcePoint" />
            <mxPoint x="420" y="600" as="targetPoint" />
            <Array as="points" />
          </mxGeometry>
        </mxCell>
        <mxCell id="XrSL-Z-DYYKuxW4y9-j6-44" value="" style="endArrow=classic;startArrow=classic;html=1;exitX=0;exitY=0.5;exitDx=0;exitDy=0;" edge="1" parent="WIyWlLk6GJQsqaUBKTNV-1" source="XrSL-Z-DYYKuxW4y9-j6-36">
          <mxGeometry width="50" height="50" relative="1" as="geometry">
            <mxPoint x="310" y="349.40999999999974" as="sourcePoint" />
            <mxPoint x="230" y="349.40999999999974" as="targetPoint" />
            <Array as="points" />
          </mxGeometry>
        </mxCell>
        <mxCell id="XrSL-Z-DYYKuxW4y9-j6-45" value="" style="endArrow=classic;startArrow=classic;html=1;" edge="1" parent="WIyWlLk6GJQsqaUBKTNV-1">
          <mxGeometry width="50" height="50" relative="1" as="geometry">
            <mxPoint x="600" y="446.9099999999998" as="sourcePoint" />
            <mxPoint x="520" y="446.9099999999998" as="targetPoint" />
            <Array as="points">
              <mxPoint x="554" y="446.91" />
            </Array>
          </mxGeometry>
        </mxCell>
        <mxCell id="XrSL-Z-DYYKuxW4y9-j6-48" value="" style="endArrow=classic;html=1;entryX=0.5;entryY=0;entryDx=0;entryDy=0;exitX=0;exitY=0.75;exitDx=0;exitDy=0;" edge="1" parent="WIyWlLk6GJQsqaUBKTNV-1" source="XrSL-Z-DYYKuxW4y9-j6-38" target="XrSL-Z-DYYKuxW4y9-j6-32">
          <mxGeometry width="50" height="50" relative="1" as="geometry">
            <mxPoint x="380" y="750" as="sourcePoint" />
            <mxPoint x="430" y="700" as="targetPoint" />
            <Array as="points" />
          </mxGeometry>
        </mxCell>
        <mxCell id="XrSL-Z-DYYKuxW4y9-j6-49" value="" style="endArrow=classic;html=1;entryX=0;entryY=0.5;entryDx=0;entryDy=0;exitX=1;exitY=0.5;exitDx=0;exitDy=0;" edge="1" parent="WIyWlLk6GJQsqaUBKTNV-1" source="XrSL-Z-DYYKuxW4y9-j6-31" target="XrSL-Z-DYYKuxW4y9-j6-38">
          <mxGeometry width="50" height="50" relative="1" as="geometry">
            <mxPoint x="347.1428571428571" y="380" as="sourcePoint" />
            <mxPoint x="140" y="430" as="targetPoint" />
            <Array as="points" />
          </mxGeometry>
        </mxCell>
        <mxCell id="XrSL-Z-DYYKuxW4y9-j6-50" value="" style="endArrow=classic;html=1;entryX=0.5;entryY=0;entryDx=0;entryDy=0;exitX=0.449;exitY=1.037;exitDx=0;exitDy=0;exitPerimeter=0;" edge="1" parent="WIyWlLk6GJQsqaUBKTNV-1" source="XrSL-Z-DYYKuxW4y9-j6-31" target="XrSL-Z-DYYKuxW4y9-j6-32">
          <mxGeometry width="50" height="50" relative="1" as="geometry">
            <mxPoint x="120" y="390" as="sourcePoint" />
            <mxPoint x="220" y="390" as="targetPoint" />
            <Array as="points" />
          </mxGeometry>
        </mxCell>
      </root>
    </mxGraphModel>
  </diagram>
</mxfile>
